0
SECTION
2
ENTITIES
0
LINE
8
OUTLINE
10
-10.9000
20
21.6500
11
10.9000
21
21.6500
0
LINE
8
OUTLINE
10
-10.9000
20
-21.6500
11
10.9000
21
-21.6500
0
LINE
8
OUTLINE
10
21.6500
20
-10.9000
11
21.6500
21
10.9000
0
LINE
8
OUTLINE
10
-21.6500
20
-10.9000
11
-21.6500
21
10.9000
0
ARC
8
OUTLINE
10
10.9000
20
10.9000
40
10.7500
50
0
51
90
0
ARC
8
OUTLINE
10
-10.9000
20
10.9000
40
10.7500
50
90
51
180
0
ARC
8
OUTLINE
10
-10.9000
20
-10.9000
40
10.7500
50
180
51
270
0
ARC
8
OUTLINE
10
10.9000
20
-10.9000
40
10.7500
50
270
51
360
0
CIRCLE
8
VENT
10
0.0000
20
0.0000
40
4.0000
0
CIRCLE
8
CELLS_REF
10
-10.9000
20
-10.9000
40
10.7500
0
CIRCLE
8
CELLS_REF
10
-10.9000
20
10.9000
40
10.7500
0
CIRCLE
8
CELLS_REF
10
10.9000
20
-10.9000
40
10.7500
0
CIRCLE
8
CELLS_REF
10
10.9000
20
10.9000
40
10.7500
0
LINE
8
RIB_STOPS_REF
10
19.3000
20
-1.0000
11
21.8000
21
-1.0000
0
LINE
8
RIB_STOPS_REF
10
21.8000
20
-1.0000
11
21.8000
21
1.0000
0
LINE
8
RIB_STOPS_REF
10
21.8000
20
1.0000
11
19.3000
21
1.0000
0
LINE
8
RIB_STOPS_REF
10
19.3000
20
1.0000
11
19.3000
21
-1.0000
0
LINE
8
RIB_STOPS_REF
10
1.0000
20
19.3000
11
1.0000
21
21.8000
0
LINE
8
RIB_STOPS_REF
10
1.0000
20
21.8000
11
-1.0000
21
21.8000
0
LINE
8
RIB_STOPS_REF
10
-1.0000
20
21.8000
11
-1.0000
21
19.3000
0
LINE
8
RIB_STOPS_REF
10
-1.0000
20
19.3000
11
1.0000
21
19.3000
0
LINE
8
RIB_STOPS_REF
10
-19.3000
20
1.0000
11
-21.8000
21
1.0000
0
LINE
8
RIB_STOPS_REF
10
-21.8000
20
1.0000
11
-21.8000
21
-1.0000
0
LINE
8
RIB_STOPS_REF
10
-21.8000
20
-1.0000
11
-19.3000
21
-1.0000
0
LINE
8
RIB_STOPS_REF
10
-19.3000
20
-1.0000
11
-19.3000
21
1.0000
0
LINE
8
RIB_STOPS_REF
10
-1.0000
20
-19.3000
11
-1.0000
21
-21.8000
0
LINE
8
RIB_STOPS_REF
10
-1.0000
20
-21.8000
11
1.0000
21
-21.8000
0
LINE
8
RIB_STOPS_REF
10
1.0000
20
-21.8000
11
1.0000
21
-19.3000
0
LINE
8
RIB_STOPS_REF
10
1.0000
20
-19.3000
11
-1.0000
21
-19.3000
0
ENDSEC
0
EOF
